HIERARCHY
ROOT pelvis
{
  OFFSET 0 100 0
  CHANNELS 6 Xposition Yposition Zposition Zrotation Xrotation Yrotation
  JOINT pelvis_right_femur
  {
    OFFSET -9.123832 -4.535613 2.258885
    CHANNELS 3 Zrotation Xrotation Yrotation
    JOINT right_femur_tibia
    {
      OFFSET -0.1797311 -42.64554 -1.003787
      CHANNELS 3 Zrotation Xrotation Yrotation
      JOINT right_tibia_foot
      {
        OFFSET 0.340718 -41.77267 0.4468169
        CHANNELS 3 Zrotation Xrotation Yrotation
        End Site
        {
          OFFSET 0 -2 15
        }
      }
    }
  }
  JOINT pelvis_left_femur
  {
    OFFSET 9.123832 -4.535613 2.258885
    CHANNELS 3 Zrotation Xrotation Yrotation
    JOINT left_femur_tibia
    {
      OFFSET 0.1797311 -42.64554 -1.003787
      CHANNELS 3 Zrotation Xrotation Yrotation
      JOINT left_tibia_foot
      {
        OFFSET -0.4551971 -40.68794 -0.378606
        CHANNELS 3 Zrotation Xrotation Yrotation
        End Site
        {
          OFFSET 0 -2 15
        }
      }
    }
  }
  JOINT pelvis_spine1
  {
    OFFSET 0 2.997207 -0.4411774
    CHANNELS 3 Zrotation Xrotation Yrotation
    JOINT spine1
    {
      OFFSET 0 27.14497 -1.141491
      CHANNELS 3 Zrotation Xrotation Yrotation
      JOINT spine2
      {
        OFFSET 0 24 -2.963401
        CHANNELS 3 Zrotation Xrotation Yrotation
        JOINT neck
        {
          OFFSET 0 9.223981 1.374317
          CHANNELS 3 Zrotation Xrotation Yrotation
          End Site
          {
            OFFSET 0 20 0
          }
        }
      }
      JOINT right_manubrium
      {
        OFFSET -4.258001 17.16087 1
        CHANNELS 3 Zrotation Xrotation Yrotation
        JOINT right_clavicle
        {
          OFFSET -10 3 -1.938228
          CHANNELS 3 Zrotation Xrotation Yrotation
          JOINT right_humerus
          {
            OFFSET -28.25479 -1.166387 -1.125847
            CHANNELS 3 Zrotation Xrotation Yrotation
            JOINT right_radius
            {
              OFFSET -23.03757 -1.155622 3.29834
              CHANNELS 3 Zrotation Xrotation Yrotation
              End Site
              {
                OFFSET -15 0 0
              }
            }
          }
        }
      }
      JOINT left_manubrium
      {
        OFFSET 4.258001 17.16087 1
        CHANNELS 3 Zrotation Xrotation Yrotation
        JOINT left_clavicle
        {
          OFFSET 10 3 -1.938228
          CHANNELS 3 Zrotation Xrotation Yrotation
          JOINT left_humerus
          {
            OFFSET 28.74886 -0.455825 -0.3072682
            CHANNELS 3 Zrotation Xrotation Yrotation
            JOINT left_radius
            {
              OFFSET 22.69387 -0.8500498 3.500701
              CHANNELS 3 Zrotation Xrotation Yrotation
              End Site
              {
                OFFSET 15 0 0
              }
            }
          }
        }
      }
    }
  }
}
MOTION
Frames:	21
Frame Time:	0.008333333333333333
67.38635 89.51828 -140.2876 -0.7217238 -3.514518 -166.5641 -1.811265 6.457912 -22.54603 -0 -4.326753 -0 -16.24546 1.950939 -20.3626 2.18894 -1.069369 -1.146997 -0 -4.513963 -0 1.774966 2.005541 2.519729 -2.681653 3.00927 7.791445 -0.1814749 -11.28453 -2.758702 4.179546 51.3582 -2.925551 1.47699 -63.69021 0.5568951 46.63732 0.3618451 -4.662653 27.28806 37.93909 -0.5986876 -0 0 21.23505 8.745317 15.71569 -0.9508606 -47.56902 0.06961269 -5.813823 -33.77805 25.3441 10.8827 -0 0 -17.59912 -4.18468 1.59062 0.0684354
67.3757 89.4978 -140.3265 -0.7173578 -3.521524 -166.5725 -1.795509 6.514809 -22.55035 -0 -4.457834 -0 -16.23956 1.958609 -20.37353 2.15815 -1.077046 -1.150679 -0 -4.492448 -0 1.773226 2.014684 2.513008 -2.661818 2.965357 7.793923 -0.1624386 -11.28816 -2.76104 4.179907 51.34665 -2.929086 1.47285 -63.69766 0.5495013 46.62948 0.3715724 -4.664264 27.28611 37.94818 -0.6060102 -0 0 21.23716 8.754856 15.71889 -0.9509908 -47.53898 0.06268302 -5.806324 -33.7605 25.32006 10.88845 -0 0 -17.58947 -4.181422 1.578463 0.07011365
67.36907 89.53153 -140.3178 -0.7164546 -3.54122 -166.5244 -1.765252 6.553467 -22.54826 -0 -4.52292 -0 -16.22549 1.977873 -20.38909 2.138473 -1.048484 -1.14326 -0 -4.427457 -0 1.769331 2.028462 2.500834 -2.654198 2.929331 7.818157 -0.1624845 -11.27698 -2.746383 4.188537 51.33649 -2.939991 1.47091 -63.70444 0.5402234 46.6254 0.3872494 -4.654282 27.28455 37.96886 -0.6057012 -0 0 21.25221 8.772788 15.72698 -0.9491727 -47.53994 0.03756053 -5.780762 -33.76618 25.2583 10.89681 -0 0 -17.59687 -4.173155 1.548319 0.0727048
67.35834 89.48701 -140.3306 -0.705219 -3.538868 -166.4802 -1.768625 6.581049 -22.54208 -0 -4.579474 -0 -16.20724 1.992033 -20.41484 2.115871 -1.082306 -1.129886 -0 -4.393419 -0 1.764065 2.032967 2.479972 -2.637498 2.909262 7.84399 -0.1464315 -11.24134 -2.731749 4.200657 51.32684 -2.955866 1.466778 -63.70943 0.5257956 46.62534 0.4142498 -4.651394 27.29775 38.00049 -0.6176429 -0 0 21.27702 8.798651 15.73968 -0.9468402 -47.53164 -0.001418774 -5.750527 -33.7685 25.16605 10.90277 -0 0 -17.60707 -4.159598 1.502272 0.07669552
67.3365 89.53404 -140.3337 -0.6980929 -3.545582 -166.413 -1.755972 6.609698 -22.53113 -0 -4.610396 -0 -16.18238 2.015498 -20.44517 2.10099 -1.076114 -1.105103 -0 -4.34896 -0 1.756206 2.042693 2.460359 -2.629775 2.868613 7.879025 -0.1529398 -11.20623 -2.712429 4.218927 51.31136 -2.978017 1.463604 -63.71927 0.5086214 46.61508 0.4437372 -4.634075 27.29779 38.0415 -0.6161295 -0 0 21.31757 8.834383 15.76136 -0.9436628 -47.54775 -0.04475647 -5.702495 -33.7982 25.04558 10.92237 -0 0 -17.61385 -4.143572 1.44034 0.08292407
67.32967 89.53701 -140.3373 -0.6907328 -3.530677 -166.3369 -1.741464 6.63459 -22.5112 -0 -4.583191 -0 -16.15202 2.047727 -20.47958 2.081215 -1.117761 -1.072677 -0 -4.291434 -0 1.746714 2.047367 2.440427 -2.60845 2.861586 7.919088 -0.1431116 -11.18109 -2.686549 4.241662 51.2906 -3.004615 1.461107 -63.73018 0.4894592 46.58839 0.4751821 -4.605419 27.28229 38.08847 -0.6056303 -0 0 21.36801 8.882268 15.78893 -0.9411181 -47.54028 -0.1035888 -5.656046 -33.81213 24.89885 10.93165 -0 0 -17.63505 -4.122642 1.366232 0.08531795
67.31745 89.55217 -140.3368 -0.6899765 -3.525645 -166.2737 -1.745001 6.649372 -22.48216 -0 -4.567122 -0 -16.11864 2.074789 -20.52046 2.092402 -1.148717 -1.039012 -0 -4.19588 -0 1.735575 2.045878 2.418071 -2.610821 2.872819 7.957418 -0.139398 -11.16616 -2.660667 4.271255 51.26653 -3.036642 1.461896 -63.7395 0.4705214 46.55497 0.5061014 -4.566029 27.26252 38.14087 -0.5827569 -0 0 21.43865 8.937919 15.82333 -0.9377387 -47.52657 -0.1749108 -5.604391 -33.82738 24.7261 10.93646 -0 0 -17.67012 -4.09825 1.280907 0.08456683
67.33075 89.54913 -140.325 -0.6879703 -3.50503 -166.22 -1.767167 6.626778 -22.44821 -0 -4.486097 -0 -16.08534 2.090156 -20.56691 2.105328 -1.192469 -0.9989487 -0 -4.114524 -0 1.723152 2.04082 2.396304 -2.603584 2.89918 7.997827 -0.1223526 -11.1622 -2.630033 4.30289 51.23627 -3.072101 1.460675 -63.74836 0.4474783 46.51386 0.542907 -4.526351 27.24423 38.19875 -0.5638372 -0 0 21.51663 9.003863 15.85941 -0.9353218 -47.49666 -0.2639048 -5.554457 -33.8322 24.52777 10.92732 -0 0 -17.7194 -4.06744 1.184867 0.07882865
67.33112 89.52374 -140.3086 -0.66808 -3.491423 -166.162 -1.770518 6.571215 -22.40772 -0 -4.340789 -0 -16.04728 2.112706 -20.61786 2.101141 -1.180651 -0.9667207 -0 -4.166475 -0 1.70953 2.038444 2.375323 -2.611445 2.935626 8.04733 -0.09222457 -11.17244 -2.589482 4.339344 51.19196 -3.111613 1.461283 -63.76321 0.4244826 46.50333 0.5737097 -4.476122 27.23508 38.25952 -0.539289 -0 0 21.59883 9.080509 15.89664 -0.9318407 -47.47971 -0.3565623 -5.487031 -33.86253 24.30522 10.93094 -0 0 -17.76853 -4.036177 1.074267 0.07907711
67.33506 89.54744 -140.2842 -0.661993 -3.484065 -166.1206 -1.752171 6.533638 -22.35846 -0 -4.223076 -0 -16.00382 2.142641 -20.67082 2.129135 -1.159559 -0.9272181 -0 -4.186947 -0 1.693304 2.03191 2.356891 -2.629434 2.983757 8.092769 -0.05583898 -11.18539 -2.553365 4.382689 51.13665 -3.15718 1.46408 -63.78394 0.4007103 46.48849 0.6119315 -4.430869 27.23295 38.32516 -0.5244428 -0 0 21.69151 9.167171 15.93478 -0.9268121 -47.4445 -0.4514782 -5.40492 -33.88607 24.06435 10.94639 -0 0 -17.81308 -4.002764 0.9540325 0.07900671
67.33852 89.52626 -140.3024 -0.6451281 -3.466947 -166.1043 -1.743143 6.49973 -22.29855 -0 -4.013623 -0 -15.95735 2.16486 -20.7265 2.155896 -1.163013 -0.8869848 -0 -4.145217 -0 1.674689 2.022378 2.340803 -2.64445 3.030276 8.13962 -0.01973809 -11.19647 -2.515445 4.427135 51.07299 -3.20704 1.461439 -63.80781 0.3693104 46.46167 0.6540975 -4.385655 27.22774 38.39252 -0.5105316 -0 0 21.79782 9.263656 15.9729 -0.9209291 -47.40164 -0.5466507 -5.30366 -33.92211 23.806 10.97681 -0 0 -17.85551 -3.967852 0.8226886 0.08199628
67.33903 89.53508 -140.2927 -0.6352981 -3.481659 -166.1154 -1.72296 6.517135 -22.22651 -0 -4.203165 -0 -15.90407 2.188893 -20.78772 2.168904 -1.193663 -0.8439073 -0 -4.077101 -0 1.652837 2.014095 2.325033 -2.655532 3.084403 8.188691 0.02402295 -11.227 -2.474449 4.465146 51.00557 -3.255499 1.44949 -63.83314 0.3294224 46.42512 0.6948302 -4.327692 27.20962 38.45845 -0.4851534 -0 0 21.91695 9.36907 16.00969 -0.912865 -47.3417 -0.6536068 -5.209761 -33.95415 23.53324 10.9929 -0 0 -17.90849 -3.929924 0.6821143 0.08434198
67.34853 89.53483 -140.2738 -0.6221586 -3.508603 -166.1274 -1.700063 6.518837 -22.1398 -0 -4.313156 -0 -15.8472 2.20755 -20.85052 2.181555 -1.186217 -0.7928011 -0 -4.236442 -0 1.627487 2.007213 2.312527 -2.674135 3.118296 8.249899 0.0561872 -11.26484 -2.418883 4.506603 50.92376 -3.311904 1.430863 -63.86772 0.2782224 46.39272 0.7497157 -4.281743 27.21682 38.53234 -0.4770319 -0 0 22.05911 9.488398 16.04613 -0.8980478 -47.29213 -0.7742283 -5.084378 -33.99793 23.23526 11.01888 -0 0 -17.95848 -3.888453 0.5338792 0.08825484
67.35005 89.51891 -140.2691 -0.6102597 -3.539026 -166.1434 -1.685537 6.509456 -22.04078 -0 -4.394119 -0 -15.78643 2.220414 -20.9166 2.190075 -1.180998 -0.7302061 -0 -4.331704 -0 1.598279 1.997753 2.299358 -2.671264 3.127765 8.32751 0.0874505 -11.29449 -2.346517 4.550066 50.83339 -3.376021 1.402826 -63.90749 0.2128397 46.35734 0.8193817 -4.248552 27.24639 38.61245 -0.4857083 -0 0 22.2294 9.622601 16.08261 -0.8753899 -47.23738 -0.903464 -4.92898 -34.04061 22.91765 11.05836 -0 0 -17.99505 -3.8468 0.3796715 0.09593278
67.3276 89.53792 -140.2892 -0.5910735 -3.572578 -166.1752 -1.681948 6.491608 -21.92574 -0 -4.400696 -0 -15.71985 2.230802 -20.98505 2.189476 -1.191067 -0.6520596 -0 -4.435889 -0 1.564568 1.983596 2.285753 -2.657235 3.115031 8.411434 0.1066324 -11.31914 -2.269586 4.597432 50.74483 -3.44599 1.371123 -63.9455 0.1404499 46.29197 0.8893111 -4.217589 27.25547 38.68297 -0.4985449 -0 0 22.40855 9.762406 16.1135 -0.8492785 -47.1844 -1.047006 -4.7601 -34.08507 22.58464 11.09202 -0 0 -18.033 -3.803776 0.2222464 0.1022187
67.3086 89.52486 -140.2724 -0.5599343 -3.627489 -166.1902 -1.687154 6.452247 -21.79301 -0 -4.499184 -0 -15.64895 2.238239 -21.05427 2.200504 -1.166431 -0.5513809 -0 -4.506696 -0 1.526921 1.965707 2.270687 -2.650604 3.103211 8.498486 0.1287159 -11.34134 -2.190808 4.653283 50.64628 -3.525822 1.337794 -63.98907 0.06074251 46.23081 0.9598185 -4.185724 27.28076 38.74903 -0.50954 -0 0 22.62189 9.90982 16.13853 -0.8160992 -47.1275 -1.197352 -4.580103 -34.12284 22.243 11.12519 -0 0 -18.05925 -3.759542 0.06443001 0.1119037
67.30514 89.53537 -140.2806 -0.5307988 -3.657178 -166.2319 -1.671228 6.422041 -21.65142 -0 -4.558079 -0 -15.57125 2.254893 -21.12562 2.222641 -1.176957 -0.4420949 -0 -4.551433 -0 1.484236 1.93999 2.256201 -2.640887 3.078589 8.59461 0.1559162 -11.36128 -2.104809 4.710626 50.54281 -3.610379 1.29911 -64.03559 -0.02774502 46.16143 1.030984 -4.157508 27.30452 38.8047 -0.5295988 -0 0 22.84289 10.06337 16.15531 -0.7820347 -47.06482 -1.353961 -4.39009 -34.15272 21.89671 11.15702 -0 0 -18.07393 -3.717205 -0.09250936 0.1235626
67.30251 89.52229 -140.275 -0.5022972 -3.691726 -166.2826 -1.644275 6.388179 -21.49969 -0 -4.588602 -0 -15.48751 2.276527 -21.19588 2.270392 -1.219491 -0.3140444 -0 -4.548759 -0 1.436251 1.909388 2.243776 -2.627467 3.103816 8.701481 0.1820416 -11.38791 -2.005441 4.761579 50.44621 -3.692069 1.254126 -64.07854 -0.1226484 46.09501 1.098597 -4.115943 27.33796 38.85284 -0.535064 -0 0 23.10599 10.22118 16.16373 -0.737167 -47.00626 -1.522692 -4.204814 -34.17649 21.54988 11.172 -0 0 -18.08195 -3.679428 -0.2468738 0.1366451
67.32052 89.54843 -140.2466 -0.4758413 -3.722432 -166.3268 -1.598629 6.335412 -21.33469 -0 -4.584474 -0 -15.39849 2.302429 -21.26143 2.309422 -1.261572 -0.1610482 -0 -4.526359 -0 1.383217 1.880372 2.237735 -2.608357 3.132659 8.812037 0.1994839 -11.40819 -1.910401 4.809449 50.34826 -3.772964 1.206178 -64.12476 -0.2220072 46.024 1.165633 -4.07203 27.37759 38.88891 -0.5414928 -0 0 23.39729 10.38139 16.16148 -0.6825125 -46.95415 -1.692419 -4.024163 -34.19327 21.21177 11.17979 -0 0 -18.07145 -3.648193 -0.3928557 0.1529773
67.35938 89.55946 -140.2215 -0.4378038 -3.749898 -166.3982 -1.554798 6.261375 -21.15263 -0 -4.55564 -0 -15.30447 2.324377 -21.32469 2.350364 -1.286994 -0.002681807 -0 -4.535082 -0 1.325853 1.850154 2.240392 -2.603069 3.161263 8.923451 0.2202463 -11.42564 -1.817443 4.858977 50.24523 -3.854809 1.160659 -64.17418 -0.3208544 45.94884 1.231084 -4.028911 27.42677 38.91143 -0.5494935 -0 0 23.72052 10.54216 16.1483 -0.6172172 -46.88572 -1.856374 -3.843223 -34.18705 20.88724 11.18949 -0 0 -18.02385 -3.624177 -0.530026 0.179922
67.37375 89.54888 -140.2315 -0.391997 -3.777643 -166.4851 -1.527242 6.183683 -20.95331 -0 -4.499455 -0 -15.20587 2.341242 -21.38391 2.409928 -1.323144 0.1704667 -0 -4.517603 -0 1.26501 1.809221 2.249967 -2.589111 3.186165 9.046179 0.2446869 -11.4502 -1.715862 4.91028 50.13349 -3.937466 1.117168 -64.22655 -0.417926 45.8642 1.2854 -3.968241 27.46831 38.91514 -0.5355496 -0 0 24.08252 10.69755 16.12194 -0.5385916 -46.80593 -2.011308 -3.656864 -34.16295 20.57946 11.20751 -0 0 -17.93285 -3.607866 -0.6559187 0.2175296
